<svg id="Layer_1" data-name="Layer 1" xmlns="http://www.w3.org/2000/svg" width="336.5" height="51.64" viewBox="0 0 336.5 51.64"><defs><style>.cls-1{fill:#ed1c24;}.cls-2{fill:#fff;stroke:#000;stroke-miterlimit:10;stroke-width:0.63px;}.cls-3{fill:#231f20;}</style></defs><title>seehowlogo</title><path class="cls-1" d="M47.07,44a13.36,13.36,0,0,1-5.56,11Q36,59.3,26.33,59.3a36.43,36.43,0,0,1-10-1.3,44.53,44.53,0,0,1-7.62-2.83V45.9H9.15a33.12,33.12,0,0,0,8.7,4.68A26.91,26.91,0,0,0,27,52.32q5.45,0,8.53-1.76A5.92,5.92,0,0,0,38.64,45,5.59,5.59,0,0,0,37,40.63q-1.67-1.49-6.42-2.55-1.76-.4-4.59-0.92T20.8,36q-6.46-1.71-9.16-5a12.49,12.49,0,0,1-2.7-8.15,13.33,13.33,0,0,1,1.25-5.71A13.81,13.81,0,0,1,14,12.33a18.21,18.21,0,0,1,6.26-3.27,28,28,0,0,1,8.5-1.21,38.19,38.19,0,0,1,8.9,1.08,33.6,33.6,0,0,1,7.49,2.61v8.83H44.7A29.58,29.58,0,0,0,37,16.44a26.47,26.47,0,0,0-8.88-1.6,15.53,15.53,0,0,0-7.65,1.74,5.58,5.58,0,0,0-3.12,5.16,5.55,5.55,0,0,0,1.89,4.57,14.74,14.74,0,0,0,6,2.5q2.28,0.53,5.12,1.05t4.72,1A17.5,17.5,0,0,1,44,35.35,11.92,11.92,0,0,1,47.07,44Z" transform="translate(-8.71 -7.67)"/><path class="cls-1" d="M100,34.43H63.82a20.92,20.92,0,0,0,1.36,7.89A14.58,14.58,0,0,0,74.34,51a21.64,21.64,0,0,0,6.92,1.05,27.34,27.34,0,0,0,10.09-2,24.82,24.82,0,0,0,7.23-3.93H99v9a68.19,68.19,0,0,1-8.53,2.94,34.59,34.59,0,0,1-9.14,1.19q-12.22,0-19.07-6.61T55.42,33.86q0-12,6.57-19.12T79.29,7.67q9.93,0,15.31,5.8T100,29.95v4.48Zm-8-6.33q0-6.5-3.27-10.06t-9.82-3.56q-6.64,0-10.57,3.91a15.19,15.19,0,0,0-4.46,9.71H91.94Z" transform="translate(-8.71 -7.67)"/><path class="cls-1" d="M153.6,34.43H117.43a20.92,20.92,0,0,0,1.36,7.89A14.58,14.58,0,0,0,128,51a21.64,21.64,0,0,0,6.92,1.05,27.34,27.34,0,0,0,10.09-2,24.82,24.82,0,0,0,7.23-3.93h0.44v9a68.19,68.19,0,0,1-8.53,2.94A34.59,34.59,0,0,1,135,59.26q-12.22,0-19.07-6.61T109,33.86q0-12,6.57-19.12T132.9,7.67q9.93,0,15.31,5.8t5.38,16.48v4.48Zm-8-6.33q0-6.5-3.27-10.06t-9.82-3.56q-6.64,0-10.57,3.91a15.19,15.19,0,0,0-4.46,9.71h28.13Z" transform="translate(-8.71 -7.67)"/><circle class="cls-2" cx="133.04" cy="17.3" r="5"/><circle class="cls-3" cx="136.04" cy="17.3" r="2"/><circle class="cls-2" cx="112.31" cy="17.3" r="5"/><circle class="cls-3" cx="115.31" cy="17.3" r="2"/><path d="M212.68,10.95l-10.9,47.26H189.53l4.82-20.88H176.41L171.6,58.21H159.35l10.9-47.26H182.5l-4,17.39h17.94l4-17.39h12.25Z" transform="translate(-8.71 -7.67)"/><path d="M266.09,28.53a34.34,34.34,0,0,1-2,11.43,28.83,28.83,0,0,1-5.71,9.81,28,28,0,0,1-9.55,7,30.65,30.65,0,0,1-12.57,2.43q-9.68,0-15.16-5t-5.47-13.76a32.91,32.91,0,0,1,2.09-11.71,29.66,29.66,0,0,1,6-9.78,27.85,27.85,0,0,1,9.43-6.54A30.38,30.38,0,0,1,245.42,10q9.71,0,15.19,5T266.09,28.53ZM248.66,44.65A21.94,21.94,0,0,0,252,38.1a27.56,27.56,0,0,0,1.22-8.58q0-5.08-2.43-8a8.58,8.58,0,0,0-6.93-2.87A12.38,12.38,0,0,0,238.27,20a15.31,15.31,0,0,0-4.94,4.11,20.43,20.43,0,0,0-3.52,6.55,27.25,27.25,0,0,0-1.33,8.81q0,5.43,2.49,8.19a8.82,8.82,0,0,0,6.9,2.76A12.3,12.3,0,0,0,243.74,49,14.9,14.9,0,0,0,248.66,44.65Z" transform="translate(-8.71 -7.67)"/><path d="M345.21,10.95l-23,47.26h-13.1l-2-31.35L291.81,58.21h-13.6l-2.16-47.26h12.74l0.09,32.51,15.84-32.51H316.9l1.44,32.5,14.45-32.5h12.42Z" transform="translate(-8.71 -7.67)"/></svg>